<mxfile host="app.diagrams.net" modified="2022-04-26T06:00:34.560Z" agent="5.0 (Windows NT 10.0; Win64; x64) AppleWebKit/537.36 (KHTML, like Gecko) Chrome/100.0.4896.127 Safari/537.36 Edg/100.0.1185.50" etag="dZBC8QGyd9WnI8PoWBf-" version="17.4.6" type="github">
  <diagram id="yyfwVq2hw4dRCNRIBdch" name="Page-1">
    <mxGraphModel dx="1038" dy="579" grid="1" gridSize="10" guides="1" tooltips="1" connect="1" arrows="1" fold="1" page="1" pageScale="1" pageWidth="850" pageHeight="1100" math="0" shadow="0">
      <root>
        <mxCell id="0" />
        <mxCell id="1" parent="0" />
      </root>
    </mxGraphModel>
  </diagram>
</mxfile>
